<?xml version="1.0" encoding="utf-8"?><!-- Generator: Adobe Illustrator 26.0.1, SVG Export Plug-In . SVG Version: 6.00 Build 0)  -->
<svg version="1.1" id="Capa_1" sodipodi:docname="Licencias.svg" sodipodi:version="0.32"
    xmlns:inkscape="http://www.inkscape.org/namespaces/inkscape"
    xmlns:sodipodi="http://sodipodi.sourceforge.net/DTD/sodipodi-0.dtd"
    xmlns="http://www.w3.org/2000/svg" x="0px" y="0px" viewBox="0 0 194.3 75.8"
    style="enable-background:new 0 0 194.3 75.8;" xml:space="preserve">
<style type="text/css">
	.st0{fill:#C4282D;}
	.st1{fill:#FFFFFF;}
</style>
    <defs>
	
		<inkscape:perspective id="perspective509"
            inkscape:persp3d-origin="420.94501 : 198.42668 : 1" inkscape:vp_x="0 : 297.64001 : 1"
            inkscape:vp_y="0 : 1000 : 0" inkscape:vp_z="841.89001 : 297.64001 : 1"
            sodipodi:type="inkscape:persp3d">
		</inkscape:perspective>
</defs>
    <sodipodi:namedview bordercolor="#666666" borderopacity="1" gridtolerance="10"
        guidetolerance="10" id="namedview503" inkscape:current-layer="Capa_1"
        inkscape:cx="420.94501" inkscape:cy="443.33958" inkscape:guide-bbox="true"
        inkscape:pageopacity="0" inkscape:pageshadow="2" inkscape:window-height="746"
        inkscape:window-maximized="1" inkscape:window-width="1280" inkscape:window-x="0"
        inkscape:window-y="0" inkscape:zoom="0.90545621" objecttolerance="10" pagecolor="#ffffff"
        showgrid="false" showguides="true">
	</sodipodi:namedview>
    <g id="g87" transform="translate(3.4383843,-105.21456)">
	<g id="g89">
		<path id="path91" class="st0" d="M156.9,105.2h19.5l-30,50.5c-1.7,2.8-3.4,5-5,6.5c-1.6,1.5-3.1,2.6-4.5,3.3
			c-1.4,0.7-2.6,1.1-3.6,1.2c-1,0.1-1.7,0.2-2.1,0.2h-17.9v-43.6h16.7l0.1,30L156.9,105.2z" />
	</g>
        <g id="g93">
		<rect id="rect95" x="-3.4" y="166.9" class="st0" width="116.8" height="14.2" />
            <g id="g97">
			<path id="path99" class="st1" d="M21.7,172.4c0-0.2,0-0.4-0.1-0.5h0c-0.1-0.1-0.3-0.1-0.5-0.1H17c-0.2,0-0.5,0.1-0.7,0.2
				c-0.2,0.1-0.3,0.2-0.3,0.3l-0.4,1.2h3l-0.3,0.8h-3l-0.9,2.6h-0.8l1.7-4.6c0.1-0.4,0.4-0.7,0.9-1c0.4-0.3,0.9-0.4,1.3-0.4h4.1
				c0.4,0,0.8,0.1,1,0.4c0.2,0.2,0.3,0.6,0.2,1.1H21.7L21.7,172.4z" />
                <path id="path101" class="st1" d="M27.8,174c0-0.2-0.1-0.4-0.2-0.5c-0.1,0-0.1-0.1-0.2-0.1c-0.1,0-0.2,0-0.2,0h-2
				c-0.2,0-0.4,0-0.6,0.1c-0.2,0.1-0.4,0.2-0.4,0.3l-1.1,3h-0.8l1.6-4.3h0.8l-0.1,0.2c0.2-0.1,0.3-0.1,0.5-0.1c0.1,0,0.3,0,0.4,0h2
				c0.4,0,0.7,0.1,0.9,0.3c0.3,0.2,0.4,0.6,0.3,1.1L27.8,174L27.8,174z" />
                <path id="path103" class="st1" d="M35.3,173.9c-0.1,0.4-0.5,0.7-0.9,1c-0.4,0.2-0.8,0.3-1.2,0.3h-2c-0.1,0-0.3,0-0.4,0
				c-0.1,0-0.3-0.1-0.4-0.1l-0.2,0.6l0,0c0,0.1,0,0.2,0.2,0.3c0.1,0.1,0.1,0.1,0.2,0.1c0.1,0,0.2,0,0.2,0h2c0.1,0,0.2,0,0.2,0
				c0.1,0,0.2,0,0.3-0.1c0.2-0.1,0.4-0.2,0.6-0.5h0.8c-0.3,0.5-0.6,0.9-1.1,1.1c-0.4,0.2-0.8,0.3-1.1,0.3h-2c-0.4,0-0.7-0.1-1-0.3
				c-0.3-0.2-0.4-0.6-0.3-1l0.6-1.7c0.1-0.4,0.5-0.7,0.9-1c0.4-0.2,0.8-0.3,1.2-0.3h2c0.4,0,0.7,0.1,1,0.3
				C35.3,173.1,35.4,173.5,35.3,173.9z M34.4,173.9c0-0.1,0-0.2-0.1-0.3c-0.1-0.1-0.3-0.2-0.6-0.2h-2c-0.2,0-0.4,0-0.6,0.1
				c-0.2,0.1-0.4,0.2-0.4,0.3c0,0.1,0,0.2,0.2,0.3c0.1,0.1,0.3,0.1,0.5,0.1h2c0.2,0,0.5,0,0.7-0.1C34.3,174.1,34.4,174,34.4,173.9z" />
                <path id="path105" class="st1" d="M41.9,173.9c-0.1,0.4-0.5,0.7-0.9,1c-0.4,0.2-0.8,0.3-1.2,0.3h-2c-0.1,0-0.3,0-0.4,0
				c-0.1,0-0.3-0.1-0.4-0.1l-0.2,0.6l0,0c0,0.1,0,0.2,0.2,0.3c0.1,0.1,0.1,0.1,0.2,0.1c0.1,0,0.2,0,0.2,0h2c0.1,0,0.2,0,0.2,0
				c0.1,0,0.2,0,0.3-0.1c0.2-0.1,0.4-0.2,0.6-0.5h0.8c-0.3,0.5-0.6,0.9-1.1,1.1c-0.4,0.2-0.8,0.3-1.1,0.3h-2c-0.4,0-0.7-0.1-1-0.3
				c-0.3-0.2-0.4-0.6-0.3-1l0.6-1.7c0.1-0.4,0.5-0.7,0.9-1c0.4-0.2,0.8-0.3,1.2-0.3h2c0.4,0,0.7,0.1,1,0.3
				C42,173.1,42,173.5,41.9,173.9z M41,173.9c0-0.1,0-0.2-0.1-0.3c-0.1-0.1-0.3-0.2-0.6-0.2h-2c-0.2,0-0.4,0-0.6,0.1
				c-0.2,0.1-0.4,0.2-0.4,0.3c0,0.1,0,0.2,0.2,0.3c0.1,0.1,0.3,0.1,0.5,0.1h2c0.2,0,0.5,0,0.7-0.1C40.9,174.1,41,174,41,173.9z" />
                <path id="path107" class="st1" d="M54.6,176.5c-0.4,0.3-0.8,0.4-1.3,0.4h-4.1c-0.4,0-0.8-0.1-1-0.3c-0.2-0.2-0.3-0.6-0.2-1.1h0.8
				c0,0.2,0,0.4,0.1,0.5h0c0.1,0.1,0.3,0.1,0.5,0.1h4.1c0.2,0,0.5-0.1,0.7-0.2c0.2-0.1,0.3-0.2,0.4-0.3l0.2-0.7c0-0.1,0-0.2-0.1-0.3
				c-0.1-0.1-0.3-0.2-0.6-0.2h-4.1c-0.5,0-0.8-0.1-1-0.4c-0.2-0.3-0.3-0.6-0.2-1l0.2-0.7c0.1-0.4,0.4-0.7,0.9-1
				c0.4-0.3,0.9-0.4,1.3-0.4h4.1c0.4,0,0.8,0.1,1,0.4c0.2,0.2,0.3,0.6,0.2,1.1h-0.8c0-0.2,0-0.4-0.1-0.5h0c-0.1-0.1-0.3-0.1-0.5-0.1
				h-4.1c-0.2,0-0.5,0.1-0.7,0.2c-0.2,0.1-0.3,0.2-0.3,0.3l-0.2,0.7c-0.1,0.1,0,0.3,0.1,0.4c0.1,0.1,0.3,0.2,0.6,0.2h4.1
				c0.5,0,0.8,0.1,1,0.4c0.2,0.3,0.3,0.6,0.2,1l-0.2,0.7C55.4,175.9,55.1,176.2,54.6,176.5z" />
                <path id="path109" class="st1" d="M61.2,176.6c-0.4,0.2-0.8,0.3-1.2,0.3h-2c-0.4,0-0.7-0.1-1-0.3c-0.3-0.2-0.4-0.6-0.2-1l0.6-1.7
				c0.1-0.4,0.5-0.7,0.9-1c0.4-0.2,0.8-0.3,1.2-0.3h2c0.4,0,0.7,0.1,1,0.3c0.3,0.3,0.4,0.6,0.3,1l-0.6,1.7
				C62,176,61.6,176.3,61.2,176.6z M61.9,173.9c0-0.1,0-0.2-0.2-0.3c-0.1-0.1-0.3-0.1-0.5-0.1h-2c-0.2,0-0.4,0-0.6,0.1
				c-0.2,0.1-0.4,0.2-0.4,0.3l-0.6,1.7c0,0.1,0,0.2,0.2,0.3c0.1,0.1,0.3,0.1,0.5,0.1h2c0.1,0,0.2,0,0.3,0c0.1,0,0.2,0,0.3-0.1
				c0.2-0.1,0.4-0.2,0.4-0.3L61.9,173.9z" />
                <path id="path111" class="st1" d="M65,173.4l-1.2,3.4h-0.8l1.7-4.7c0.1-0.4,0.4-0.7,0.8-1c0.4-0.2,0.8-0.3,1.3-0.3l-0.3,0.8
				c-0.3,0-0.6,0.1-0.7,0.2c-0.1,0.1-0.2,0.2-0.3,0.3l-0.1,0.4h0.8l-0.3,0.8H65z" />
                <path id="path113" class="st1"
                    d="M68.8,173.4l-1.2,3.4h-0.8l1.2-3.4h-0.8l0.3-0.8h0.8l0.6-1.7h0.8l-0.6,1.7H70l-0.3,0.8H68.8z" />
                <path id="path115" class="st1" d="M75.3,176.5c-0.4,0.2-0.8,0.3-1.2,0.3c-0.2,0-0.5,0-0.7-0.1c-0.2-0.1-0.4-0.2-0.5-0.3
				c-0.3,0.1-0.5,0.2-0.8,0.3c-0.3,0.1-0.5,0.1-0.8,0.1c-0.4,0-0.8-0.1-1-0.3c-0.2-0.2-0.3-0.6-0.1-1l1.1-3h0.8l-1.1,3
				c0,0.1,0,0.2,0.1,0.3c0.1,0.1,0.3,0.1,0.6,0.1c0.2,0,0.5,0,0.7-0.1c0.2-0.1,0.3-0.2,0.4-0.3l0.7-1.8h0.8l-0.7,1.8
				c0,0.1,0,0.2,0.1,0.3c0.1,0.1,0.3,0.1,0.6,0.1c0.3,0,0.5,0,0.7-0.1c0.2-0.1,0.3-0.2,0.3-0.3l1.1-3h0.9l-1.1,3
				C76,176,75.7,176.3,75.3,176.5z" />
                <path id="path117" class="st1" d="M81.6,176.6c-0.4,0.2-0.8,0.3-1.2,0.3h-2c-0.4,0-0.8-0.1-1-0.3c-0.3-0.2-0.4-0.6-0.2-1
				c0.1-0.4,0.5-0.7,0.9-1c0.4-0.2,0.8-0.3,1.2-0.3h2c0.1,0,0.2,0,0.4,0c0.1,0,0.3,0.1,0.4,0.1l0.2-0.6c0-0.1,0-0.2-0.2-0.3
				c-0.1-0.1-0.3-0.1-0.5-0.1h-2c-0.1,0-0.2,0-0.3,0c-0.1,0-0.2,0-0.3,0.1c-0.2,0.1-0.4,0.2-0.6,0.5h-0.8c0.3-0.5,0.6-0.9,1.1-1.1
				c0.4-0.2,0.8-0.3,1.1-0.3h2c0.4,0,0.7,0.1,1,0.3c0.3,0.2,0.4,0.6,0.3,1l-0.6,1.7C82.4,176,82.1,176.3,81.6,176.6z M81.7,175.6
				c0-0.1,0-0.2-0.2-0.3c-0.1-0.1-0.3-0.1-0.5-0.1h-2c-0.2,0-0.5,0.1-0.7,0.2c-0.2,0.1-0.3,0.2-0.3,0.3c0,0.1,0,0.2,0.1,0.3
				c0.1,0.1,0.3,0.1,0.6,0.1h2c0.2,0,0.4,0,0.6-0.1C81.5,175.8,81.6,175.7,81.7,175.6z" />
                <path id="path119" class="st1" d="M88.9,174c0-0.2-0.1-0.4-0.2-0.5c-0.1,0-0.1-0.1-0.2-0.1c-0.1,0-0.2,0-0.2,0h-2
				c-0.2,0-0.4,0-0.6,0.1c-0.2,0.1-0.4,0.2-0.4,0.3l-1.1,3h-0.8l1.6-4.3h0.8l-0.1,0.2c0.2-0.1,0.3-0.1,0.5-0.1c0.1,0,0.3,0,0.4,0h2
				c0.4,0,0.7,0.1,0.9,0.3c0.3,0.2,0.4,0.6,0.3,1.1L88.9,174L88.9,174z" />
                <path id="path121" class="st1" d="M96.4,173.9c-0.1,0.4-0.5,0.7-0.9,1c-0.4,0.2-0.8,0.3-1.2,0.3h-2c-0.1,0-0.3,0-0.4,0
				c-0.1,0-0.3-0.1-0.4-0.1l-0.2,0.6l0,0c0,0.1,0,0.2,0.2,0.3c0.1,0.1,0.1,0.1,0.2,0.1c0.1,0,0.2,0,0.2,0h2c0.1,0,0.2,0,0.2,0
				c0.1,0,0.2,0,0.3-0.1c0.2-0.1,0.4-0.2,0.6-0.5h0.8c-0.3,0.5-0.6,0.9-1.1,1.1c-0.4,0.2-0.8,0.3-1.1,0.3h-2c-0.4,0-0.7-0.1-1-0.3
				c-0.3-0.2-0.4-0.6-0.3-1l0.6-1.7c0.1-0.4,0.5-0.7,0.9-1c0.4-0.2,0.8-0.3,1.2-0.3h2c0.4,0,0.7,0.1,1,0.3
				C96.5,173.1,96.6,173.5,96.4,173.9z M95.6,173.9c0-0.1,0-0.2-0.1-0.3c-0.1-0.1-0.3-0.2-0.6-0.2h-2c-0.2,0-0.4,0-0.6,0.1
				c-0.2,0.1-0.4,0.2-0.4,0.3c0,0.1,0,0.2,0.2,0.3c0.1,0.1,0.3,0.1,0.5,0.1h2c0.2,0,0.5,0,0.7-0.1C95.4,174.1,95.5,174,95.6,173.9z" />
		</g>
	</g>
        <g id="g123">
		<path id="path125" d="M33.2,156.4c-1.3,1-2.8,1.5-4.7,1.5H12.4c-1.8,0-3.4-0.5-4.6-1.5c-1.3-1-2-2.3-2-3.8V140
			c0-1.5,0.7-2.7,2-3.8c1.3-1,2.8-1.5,4.7-1.5h16.2c1.7,0,3.1,0.5,4.3,1.4c1.2,0.9,2,2.4,2.4,4.4H32c-0.2-1-0.7-1.7-1.3-2
			c-0.6-0.3-1.3-0.5-2.1-0.5H12.4c-1,0-1.8,0.2-2.5,0.7c-0.6,0.4-0.9,0.8-0.9,1.3v12.6c0,0.5,0.3,1,0.9,1.4l0,0
			c0.7,0.4,1.5,0.7,2.4,0.7h16.2c0.8,0,1.6-0.2,2.3-0.5c0.8-0.4,1.2-0.9,1.2-1.5v-4.6H18.9v-3.3h16.4v7.9
			C35.3,154.1,34.6,155.3,33.2,156.4z" />
            <path id="path127" d="M67.8,146.4c-1.2,1-2.8,1.5-4.6,1.5H43.6v10h-3.3V140c0-1.5,0.7-2.7,2-3.8c1.3-1,2.8-1.5,4.7-1.5h16.2
			c1.8,0,3.3,0.5,4.6,1.5c1.3,1,2,2.3,2,3.8v2.7C69.8,144.1,69.2,145.4,67.8,146.4z M66.5,140c0-0.5-0.3-0.9-0.9-1.3
			c-0.7-0.4-1.5-0.7-2.4-0.7H47c-0.8,0-1.6,0.2-2.2,0.5c-0.7,0.3-1.1,0.8-1.1,1.5v4.7h19.5c0.9,0,1.8-0.2,2.4-0.6
			c0.6-0.4,0.9-0.9,0.9-1.4V140z" />
            <path id="path129" d="M104.4,152.7c-0.3,1.6-1,2.8-2.3,3.8c-1.2,0.9-2.6,1.4-4.3,1.4H81.6c-1.8,0-3.4-0.5-4.6-1.5
			c-1.3-1-2-2.3-2-3.8v-17.9h3.4v17.9c0,0.5,0.3,1,0.9,1.4l0,0c0.7,0.4,1.5,0.7,2.4,0.7h16.2c0.8,0,1.5-0.2,2.1-0.5h0
			c0.6-0.4,1.1-1.1,1.3-2h2.6L104.4,152.7z" />
	</g>
        <g id="g131">
		<path id="path133" d="M191,152.6c0,1.5-0.7,2.8-2,3.8c-1.2,1-2.7,1.5-4.6,1.5h-16.1c-1.7,0-3.1-0.5-4.3-1.4
			c-1.3-1-2.1-2.5-2.4-4.5h3.3c0.2,0.9,0.7,1.6,1.3,2h0c0.6,0.4,1.3,0.5,2.2,0.5h16.1c0.9,0,1.7-0.2,2.4-0.6
			c0.6-0.4,0.9-0.9,0.9-1.4v-2.7c0-0.5-0.3-0.9-0.9-1.3c-0.7-0.5-1.5-0.7-2.4-0.7h-8.6v-3.3h8.6c0.9,0,1.7-0.2,2.4-0.7
			c0.6-0.4,0.9-0.8,0.9-1.4V140c0-0.5-0.3-0.9-0.9-1.3c-0.7-0.5-1.5-0.7-2.4-0.7h-16c-0.8,0-1.5,0.2-2.1,0.5h0c-0.6,0.4-1.1,1-1.3,2
			h-3.3c0.3-2,1.1-3.5,2.3-4.4c1.2-0.9,2.6-1.4,4.3-1.4h16.1c1.8,0,3.3,0.5,4.6,1.5c1.3,1,2,2.3,2,3.8c0,1.3-0.1,2.5-0.2,3.5
			c0,0.5-0.2,1-0.5,1.5c-0.1,0.2-0.3,0.4-0.5,0.6c-0.2,0.2-0.4,0.4-0.7,0.7c0.5,0.5,0.9,0.9,1.2,1.3c0.3,0.5,0.5,1,0.5,1.4
			C191,150.1,191,151.3,191,152.6z" />
	</g>
</g>
</svg>
