<?xml version="1.0" encoding="utf-8"?><!-- Generator: Adobe Illustrator 26.0.1, SVG Export Plug-In . SVG Version: 6.00 Build 0)  -->
<svg version="1.1" id="Capa_1" sodipodi:docname="Licencias.svg" sodipodi:version="0.32"
    xmlns:inkscape="http://www.inkscape.org/namespaces/inkscape"
    xmlns:sodipodi="http://sodipodi.sourceforge.net/DTD/sodipodi-0.dtd"
    xmlns="http://www.w3.org/2000/svg" x="0px" y="0px" viewBox="0 0 199.6 81.2"
    style="enable-background:new 0 0 199.6 81.2;" xml:space="preserve">
<style type="text/css">
	.st0{fill:#FF6E40;}
	.st1{fill:#FFFFFF;}
	.st2{fill:#316879;}
</style>
    <defs>
	
		<inkscape:perspective id="perspective509"
            inkscape:persp3d-origin="420.94501 : 198.42668 : 1" inkscape:vp_x="0 : 297.64001 : 1"
            inkscape:vp_y="0 : 1000 : 0" inkscape:vp_z="841.89001 : 297.64001 : 1"
            sodipodi:type="inkscape:persp3d">
		</inkscape:perspective>
</defs>
    <sodipodi:namedview bordercolor="#666666" borderopacity="1" gridtolerance="10"
        guidetolerance="10" id="namedview503" inkscape:current-layer="Capa_1"
        inkscape:cx="420.94501" inkscape:cy="443.33958" inkscape:guide-bbox="true"
        inkscape:pageopacity="0" inkscape:pageshadow="2" inkscape:window-height="746"
        inkscape:window-maximized="1" inkscape:window-width="1280" inkscape:window-x="0"
        inkscape:window-y="0" inkscape:zoom="0.90545621" objecttolerance="10" pagecolor="#ffffff"
        showgrid="false" showguides="true">
	</sodipodi:namedview>
    <g>
	<path class="st0" d="M164.3,1.8h14.2c1.7,0,2.8,1.9,1.9,3.4l-28,47.1c-1.7,2.8-3.4,5-5,6.5s-3.1,2.6-4.5,3.3s-2.6,1.1-3.6,1.2
		c-1,0.1-1.7,0.2-2.1,0.2h-15.7c-1.2,0-2.2-1-2.2-2.2V22.2c0-1.2,1-2.2,2.2-2.2h12.2c1.2,0,2.2,1,2.2,2.2l0.1,24.5
		c0,0.9,1.2,1.2,1.6,0.4L162.4,3C162.7,2.3,163.5,1.8,164.3,1.8z" />
        <path class="st0" d="M5.5,63.5h111.1c1.6,0,2.8,1.3,2.8,2.8v8.5c0,1.6-1.3,2.8-2.8,2.8H5.5c-1.6,0-2.8-1.3-2.8-2.8v-8.5
		C2.7,64.8,4,63.5,5.5,63.5z" />
        <path class="st1" d="M27.8,69c0-0.2,0-0.4-0.1-0.5s-0.3-0.1-0.5-0.1h-4.1c-0.2,0-0.5,0.1-0.7,0.2c-0.2,0.1-0.3,0.2-0.3,0.3
		l-0.4,1.2h3l-0.3,0.8h-3l-0.9,2.6h-0.8l1.7-4.6c0.1-0.4,0.4-0.7,0.9-1c0.4-0.3,0.9-0.4,1.3-0.4h4.1c0.4,0,0.8,0.1,1,0.4
		c0.2,0.2,0.3,0.6,0.2,1.1H27.8z" />
        <path class="st1" d="M33.9,70.6c0-0.2-0.1-0.4-0.2-0.5c-0.1,0-0.1-0.1-0.2-0.1s-0.2,0-0.2,0h-2c-0.2,0-0.4,0-0.6,0.1
		s-0.4,0.2-0.4,0.3l-1.1,3h-0.8l1.6-4.3h0.8l-0.1,0.2c0.2-0.1,0.3-0.1,0.5-0.1c0.1,0,0.3,0,0.4,0h2c0.4,0,0.7,0.1,0.9,0.3
		c0.3,0.2,0.4,0.6,0.3,1.1H33.9z" />
        <path class="st1" d="M41.4,70.5c-0.1,0.4-0.5,0.7-0.9,1c-0.4,0.2-0.8,0.3-1.2,0.3h-2c-0.1,0-0.3,0-0.4,0c-0.1,0-0.3-0.1-0.4-0.1
		l-0.2,0.6c0,0.1,0,0.2,0.2,0.3c0.1,0.1,0.1,0.1,0.2,0.1c0.1,0,0.2,0,0.2,0h2c0.1,0,0.2,0,0.2,0c0.1,0,0.2,0,0.3-0.1
		c0.2-0.1,0.4-0.2,0.6-0.5h0.8c-0.3,0.5-0.6,0.9-1.1,1.1c-0.4,0.2-0.8,0.3-1.1,0.3h-2c-0.4,0-0.7-0.1-1-0.3s-0.4-0.6-0.3-1l0.6-1.7
		c0.1-0.4,0.5-0.7,0.9-1c0.4-0.2,0.8-0.3,1.2-0.3h2c0.4,0,0.7,0.1,1,0.3C41.4,69.7,41.5,70.1,41.4,70.5z M40.5,70.5
		c0-0.1,0-0.2-0.1-0.3S40.1,70,39.8,70h-2c-0.2,0-0.4,0-0.6,0.1s-0.4,0.2-0.4,0.3s0,0.2,0.2,0.3c0.1,0.1,0.3,0.1,0.5,0.1h2
		c0.2,0,0.5,0,0.7-0.1C40.4,70.7,40.5,70.6,40.5,70.5z" />
        <path class="st1" d="M48,70.5c-0.1,0.4-0.5,0.7-0.9,1c-0.4,0.2-0.8,0.3-1.2,0.3h-2c-0.1,0-0.3,0-0.4,0c-0.1,0-0.3-0.1-0.4-0.1
		l-0.2,0.6c0,0.1,0,0.2,0.2,0.3c0.1,0.1,0.1,0.1,0.2,0.1c0.1,0,0.2,0,0.2,0h2c0.1,0,0.2,0,0.2,0c0.1,0,0.2,0,0.3-0.1
		c0.2-0.1,0.4-0.2,0.6-0.5h0.8c-0.3,0.5-0.6,0.9-1.1,1.1c-0.4,0.2-0.8,0.3-1.1,0.3h-2c-0.4,0-0.7-0.1-1-0.3s-0.4-0.6-0.3-1l0.6-1.7
		c0.1-0.4,0.5-0.7,0.9-1c0.4-0.2,0.8-0.3,1.2-0.3h2c0.4,0,0.7,0.1,1,0.3C48.1,69.7,48.1,70.1,48,70.5z M47.1,70.5
		c0-0.1,0-0.2-0.1-0.3S46.7,70,46.4,70h-2c-0.2,0-0.4,0-0.6,0.1c-0.2,0.1-0.4,0.2-0.4,0.3s0,0.2,0.2,0.3c0.1,0.1,0.3,0.1,0.5,0.1h2
		c0.2,0,0.5,0,0.7-0.1C47,70.7,47.1,70.6,47.1,70.5z" />
        <path class="st1" d="M60.7,73.1c-0.4,0.3-0.8,0.4-1.3,0.4h-4.1c-0.4,0-0.8-0.1-1-0.3s-0.3-0.6-0.2-1.1h0.8c0,0.2,0,0.4,0.1,0.5
		s0.3,0.1,0.5,0.1h4.1c0.2,0,0.5-0.1,0.7-0.2c0.2-0.1,0.3-0.2,0.4-0.3l0.2-0.7c0-0.1,0-0.2-0.1-0.3S60.5,71,60.2,71h-4.1
		c-0.5,0-0.8-0.1-1-0.4c-0.2-0.3-0.3-0.6-0.2-1l0.2-0.7c0.1-0.4,0.4-0.7,0.9-1c0.4-0.3,0.9-0.4,1.3-0.4h4.1c0.4,0,0.8,0.1,1,0.4
		c0.2,0.2,0.3,0.6,0.2,1.1h-0.8c0-0.2,0-0.4-0.1-0.5s-0.3-0.1-0.5-0.1h-4.1c-0.2,0-0.5,0.1-0.7,0.2c-0.2,0.1-0.3,0.2-0.3,0.3
		l-0.2,0.7c-0.1,0.1,0,0.3,0.1,0.4c0.1,0.1,0.3,0.2,0.6,0.2h4.1c0.5,0,0.8,0.1,1,0.4c0.2,0.3,0.3,0.6,0.2,1l-0.2,0.7
		C61.5,72.5,61.2,72.8,60.7,73.1z" />
        <path class="st1" d="M67.3,73.2c-0.4,0.2-0.8,0.3-1.2,0.3h-2c-0.4,0-0.7-0.1-1-0.3s-0.4-0.6-0.2-1l0.6-1.7c0.1-0.4,0.5-0.7,0.9-1
		c0.4-0.2,0.8-0.3,1.2-0.3h2c0.4,0,0.7,0.1,1,0.3c0.3,0.3,0.4,0.6,0.3,1l-0.6,1.7C68.1,72.6,67.7,72.9,67.3,73.2z M68,70.5
		c0-0.1,0-0.2-0.2-0.3c-0.1-0.1-0.3-0.1-0.5-0.1h-2c-0.2,0-0.4,0-0.6,0.1s-0.4,0.2-0.4,0.3l-0.6,1.7c0,0.1,0,0.2,0.2,0.3
		c0.1,0.1,0.3,0.1,0.5,0.1h2c0.1,0,0.2,0,0.3,0c0.1,0,0.2,0,0.3-0.1c0.2-0.1,0.4-0.2,0.4-0.3L68,70.5z" />
        <path class="st1" d="M71.1,70l-1.2,3.4h-0.8l1.7-4.7c0.1-0.4,0.4-0.7,0.8-1c0.4-0.2,0.8-0.3,1.3-0.3l-0.3,0.8
		c-0.3,0-0.6,0.1-0.7,0.2c-0.1,0.1-0.2,0.2-0.3,0.3l-0.1,0.4h0.8L72,69.9h-0.9V70z" />
        <polygon class="st1" points="74.9,70 73.7,73.4 72.9,73.4 74.1,70 73.3,70 73.6,69.2 74.4,69.2 75,67.5 75.8,67.5 75.2,69.2
		76.1,69.2 75.8,70 	" />
        <path class="st1" d="M81.4,73.1c-0.4,0.2-0.8,0.3-1.2,0.3c-0.2,0-0.5,0-0.7-0.1S79.1,73.1,79,73c-0.3,0.1-0.5,0.2-0.8,0.3
		s-0.5,0.1-0.8,0.1c-0.4,0-0.8-0.1-1-0.3s-0.3-0.6-0.1-1l1.1-3h0.8l-1.1,3c0,0.1,0,0.2,0.1,0.3s0.3,0.1,0.6,0.1c0.2,0,0.5,0,0.7-0.1
		s0.3-0.2,0.4-0.3l0.7-1.8h0.8l-0.7,1.8c0,0.1,0,0.2,0.1,0.3s0.3,0.1,0.6,0.1c0.3,0,0.5,0,0.7-0.1s0.3-0.2,0.3-0.3l1.1-3h0.9l-1.1,3
		C82.1,72.6,81.8,72.9,81.4,73.1z" />
        <path class="st1" d="M87.7,73.2c-0.4,0.2-0.8,0.3-1.2,0.3h-2c-0.4,0-0.8-0.1-1-0.3c-0.3-0.2-0.4-0.6-0.2-1c0.1-0.4,0.5-0.7,0.9-1
		c0.4-0.2,0.8-0.3,1.2-0.3h2c0.1,0,0.2,0,0.4,0c0.1,0,0.3,0.1,0.4,0.1l0.2-0.6c0-0.1,0-0.2-0.2-0.3C88.1,70,87.9,70,87.7,70h-2
		c-0.1,0-0.2,0-0.3,0c-0.1,0-0.2,0-0.3,0.1c-0.2,0.1-0.4,0.2-0.6,0.5h-0.8c0.3-0.5,0.6-0.9,1.1-1.1c0.4-0.2,0.8-0.3,1.1-0.3h2
		c0.4,0,0.7,0.1,1,0.3s0.4,0.6,0.3,1l-0.6,1.7C88.5,72.6,88.2,72.9,87.7,73.2z M87.8,72.2c0-0.1,0-0.2-0.2-0.3
		c-0.1-0.1-0.3-0.1-0.5-0.1h-2c-0.2,0-0.5,0.1-0.7,0.2c-0.2,0.1-0.3,0.2-0.3,0.3s0,0.2,0.1,0.3s0.3,0.1,0.6,0.1h2
		c0.2,0,0.4,0,0.6-0.1C87.6,72.4,87.7,72.3,87.8,72.2z" />
        <path class="st1" d="M95,70.6c0-0.2-0.1-0.4-0.2-0.5c-0.1,0-0.1-0.1-0.2-0.1s-0.2,0-0.2,0h-2c-0.2,0-0.4,0-0.6,0.1
		s-0.4,0.2-0.4,0.3l-1.1,3h-0.8l1.6-4.3h0.8l-0.1,0.2c0.2-0.1,0.3-0.1,0.5-0.1c0.1,0,0.3,0,0.4,0h2c0.4,0,0.7,0.1,0.9,0.3
		c0.3,0.2,0.4,0.6,0.3,1.1H95z" />
        <path class="st1" d="M102.5,70.5c-0.1,0.4-0.5,0.7-0.9,1c-0.4,0.2-0.8,0.3-1.2,0.3h-2c-0.1,0-0.3,0-0.4,0s-0.3-0.1-0.4-0.1
		l-0.2,0.6c0,0.1,0,0.2,0.2,0.3c0.1,0.1,0.1,0.1,0.2,0.1s0.2,0,0.2,0h2c0.1,0,0.2,0,0.2,0c0.1,0,0.2,0,0.3-0.1
		c0.2-0.1,0.4-0.2,0.6-0.5h0.8c-0.3,0.5-0.6,0.9-1.1,1.1c-0.4,0.2-0.8,0.3-1.1,0.3h-2c-0.4,0-0.7-0.1-1-0.3s-0.4-0.6-0.3-1l0.6-1.7
		c0.1-0.4,0.5-0.7,0.9-1c0.4-0.2,0.8-0.3,1.2-0.3h2c0.4,0,0.7,0.1,1,0.3C102.6,69.7,102.7,70.1,102.5,70.5z M101.7,70.5
		c0-0.1,0-0.2-0.1-0.3S101.3,70,101,70h-2c-0.2,0-0.4,0-0.6,0.1S98,70.3,98,70.4s0,0.2,0.2,0.3c0.1,0.1,0.3,0.1,0.5,0.1h2
		c0.2,0,0.5,0,0.7-0.1C101.5,70.7,101.6,70.6,101.7,70.5z" />
        <path class="st2" d="M39.3,53c-1.3,1-2.8,1.5-4.7,1.5H18.5c-1.8,0-3.4-0.5-4.6-1.5c-1.3-1-2-2.3-2-3.8V36.6c0-1.5,0.7-2.7,2-3.8
		c1.3-1,2.8-1.5,4.7-1.5h16.2c1.7,0,3.1,0.5,4.3,1.4c1,0.8,1.8,2,2.2,3.6c0.1,0.4-0.2,0.8-0.6,0.8h-2.1c-0.3,0-0.5-0.2-0.6-0.4
		c-0.2-0.8-0.7-1.3-1.2-1.6c-0.6-0.3-1.3-0.5-2.1-0.5H18.5c-1,0-1.8,0.2-2.5,0.7c-0.6,0.4-0.9,0.8-0.9,1.3v12.6c0,0.5,0.3,1,0.9,1.4
		c0.7,0.4,1.5,0.7,2.4,0.7h16.2c0.8,0,1.6-0.2,2.3-0.5c0.8-0.4,1.2-0.9,1.2-1.5v-4c0-0.4-0.3-0.6-0.6-0.6H25.6
		c-0.4,0-0.6-0.3-0.6-0.6v-2c0-0.4,0.3-0.6,0.6-0.6h15.1c0.4,0,0.6,0.3,0.6,0.6v7.3C41.4,50.7,40.7,51.9,39.3,53z" />
        <path class="st2" d="M73.9,43c-1.2,1-2.8,1.5-4.6,1.5H50.4c-0.4,0-0.7,0.3-0.7,0.7v8.6c0,0.4-0.3,0.7-0.7,0.7h-1.9
		c-0.4,0-0.7-0.3-0.7-0.7V36.6c0-1.5,0.7-2.7,2-3.8c1.3-1,2.8-1.5,4.7-1.5h16.2c1.8,0,3.3,0.5,4.6,1.5s2,2.3,2,3.8v2.7
		C75.9,40.7,75.3,42,73.9,43z M72.6,36.6c0-0.5-0.3-0.9-0.9-1.3c-0.7-0.4-1.5-0.7-2.4-0.7H53.1c-0.8,0-1.6,0.2-2.2,0.5
		c-0.7,0.3-1.1,0.8-1.1,1.5v4c0,0.4,0.3,0.7,0.7,0.7h18.8c0.9,0,1.8-0.2,2.4-0.6c0.6-0.4,0.9-0.9,0.9-1.4V36.6z" />
        <path class="st2" d="M110.5,49.3c-0.3,1.6-1,2.8-2.3,3.8c-1.2,0.9-2.6,1.4-4.3,1.4H87.7c-1.8,0-3.4-0.5-4.6-1.5c-1.3-1-2-2.3-2-3.8
		V32.3c0-0.5,0.4-1,1-1h1.4c0.5,0,1,0.4,1,1v16.9c0,0.5,0.3,1,0.9,1.4c0.7,0.4,1.5,0.7,2.4,0.7H104c0.8,0,1.5-0.2,2.1-0.5
		c0.5-0.3,0.9-0.8,1.1-1.4c0.1-0.4,0.5-0.6,0.9-0.6h1.9L110.5,49.3z" />
        <path class="st2" d="M197.1,49.2c0,1.5-0.7,2.8-2,3.8c-1.2,1-2.7,1.5-4.6,1.5h-16.1c-1.7,0-3.1-0.5-4.3-1.4
		c-1.2-0.9-1.9-2.2-2.3-3.9c-0.1-0.3,0.2-0.6,0.5-0.6h2.3c0.2,0,0.4,0.2,0.5,0.4c0.2,0.7,0.7,1.3,1.2,1.6c0.6,0.4,1.3,0.5,2.2,0.5
		h16.1c0.9,0,1.7-0.2,2.4-0.6c0.6-0.4,0.9-0.9,0.9-1.4v-2.7c0-0.5-0.3-0.9-0.9-1.3c-0.7-0.5-1.5-0.7-2.4-0.7h-8.1
		c-0.3,0-0.5-0.2-0.5-0.5v-2.2c0-0.3,0.2-0.5,0.5-0.5h8.1c0.9,0,1.7-0.2,2.4-0.7c0.6-0.4,0.9-0.8,0.9-1.4v-2.4
		c0-0.5-0.3-0.9-0.9-1.3c-0.7-0.5-1.5-0.7-2.4-0.7h-16c-0.8,0-1.5,0.2-2.1,0.5c-0.5,0.3-1,0.8-1.2,1.6c-0.1,0.2-0.3,0.4-0.5,0.4
		h-2.2c-0.3,0-0.6-0.3-0.5-0.6c0.4-1.7,1.1-3,2.2-3.8c1.2-0.9,2.6-1.4,4.3-1.4h16.1c1.8,0,3.3,0.5,4.6,1.5c1.3,1,2,2.3,2,3.8
		c0,1.3-0.1,2.5-0.2,3.5c0,0.5-0.2,1-0.5,1.5c-0.1,0.2-0.3,0.4-0.5,0.6c-0.2,0.2-0.4,0.4-0.7,0.7c0.5,0.5,0.9,0.9,1.2,1.3
		c0.3,0.5,0.5,1,0.5,1.4C197.1,46.7,197.1,47.9,197.1,49.2z" />
</g>
</svg>
