<svg xmlns="http://www.w3.org/2000/svg" xmlns:xlink="http://www.w3.org/1999/xlink" id="Layer_1" x="0" y="0" version="1.1" viewBox="0 0 24 24" style="enable-background:new 0 0 24 24" xml:space="preserve"><style type="text/css">.st0{fill:url(#SVGID_1_)}</style><linearGradient id="SVGID_1_" x1="4.853" x2="19.198" y1="17.053" y2="2.707" gradientUnits="userSpaceOnUse"><stop offset="0" style="stop-color:#fe8e68"/><stop offset="1" style="stop-color:#febd64"/></linearGradient><path d="M19.7,15.3c-3.7,6.5-7.5,8.2-11.2,5.3l7.3-12.7c0.1-0.1,0.1-0.3,0.1-0.4c0-0.3-0.1-0.5-0.4-0.7	c-0.4-0.2-0.9-0.1-1.1,0.3L7.3,19.5c-1-1.1-2-2.4-2.9-4.1C-0.8,6.5,1.8,2.1,12,2c1,0,1.9,0,2.8,0.1l-4.9,8.5c-0.1,0.2,0,0.6,0.2,0.7	c0.1,0,0.2,0.1,0.3,0.1c0.2,0,0.3-0.1,0.4-0.3l5.1-8.9C22.8,3.4,24.1,7.7,19.7,15.3z" class="st0"/></svg>